<?xml version="1.0" encoding="utf-8"?>
<!-- Generator: Adobe Illustrator 28.0.0, SVG Export Plug-In . SVG Version: 6.00 Build 0)  -->
<svg version="1.1" id="Capa_1" xmlns="http://www.w3.org/2000/svg" xmlns:xlink="http://www.w3.org/1999/xlink" x="0px" y="0px"
	 viewBox="0 0 283.5 283.5" style="enable-background:new 0 0 283.5 283.5;" xml:space="preserve">
<style type="text/css">
	.st0{fill-rule:evenodd;clip-rule:evenodd;}
	.st1{fill:none;stroke:#000000;stroke-width:10;stroke-miterlimit:10;}
	.st2{fill:none;stroke:#000000;stroke-width:10;stroke-linecap:round;stroke-linejoin:round;stroke-miterlimit:10;}
</style>
<g>
	<g>
		<path class="st0" d="M108.9,81h24.7l-24.7,60.1V81z M150.4,81h25v59.4L150.4,81z M142.3,104l13.6,36.1h-8.4l-5.8-11.4h-9.3
			L142.3,104z"/>
	</g>
	<g>
		<path d="M178.1,83.2h-0.8l0.1-0.6h2.3l-0.1,0.6h-0.8l-0.5,2.5h-0.7L178.1,83.2z"/>
		<path d="M182,85.8l0.2-1.3c0.1-0.3,0.1-0.8,0.2-1.2h0c-0.2,0.4-0.4,0.8-0.5,1.2l-0.6,1.3h-0.5l-0.1-1.3c0-0.3-0.1-0.8-0.1-1.2h0
			c-0.1,0.4-0.2,0.9-0.3,1.2l-0.3,1.3h-0.6l0.8-3.1h0.9l0.1,1.2c0,0.3,0.1,0.6,0.1,1h0c0.1-0.3,0.3-0.7,0.4-1l0.6-1.2h0.9l-0.4,3.1
			H182z"/>
	</g>
</g>
<path class="st1" d="M226.1,201.3H57.3c-11,0-19.8-8.9-19.8-19.8V66.6c0-11,8.9-19.8,19.8-19.8h168.8c11,0,19.8,8.9,19.8,19.8v114.9
	C246,192.4,237.1,201.3,226.1,201.3z"/>
<polygon class="st1" points="175,241 108.5,241 111.5,201.3 172,201.3 "/>
<line class="st2" x1="95.1" y1="241" x2="188" y2="241"/>
<path class="st1" d="M37.5,169.4v12.1c0,11,8.9,19.8,19.8,19.8h168.8c11,0,19.8-8.9,19.8-19.8v-12.1H37.5z"/>
</svg>
