<?xml version="1.0" encoding="utf-8"?>
<!-- Generator: Adobe Illustrator 28.0.0, SVG Export Plug-In . SVG Version: 6.00 Build 0)  -->
<svg version="1.1" id="Capa_1" xmlns="http://www.w3.org/2000/svg" xmlns:xlink="http://www.w3.org/1999/xlink" x="0px" y="0px"
	 viewBox="0 0 283.5 283.5" style="enable-background:new 0 0 283.5 283.5;" xml:space="preserve">
<style type="text/css">
	.st0{stroke:#000000;stroke-width:10;stroke-miterlimit:10;}
	.st1{fill:none;stroke:#000000;stroke-width:10;stroke-linecap:round;stroke-linejoin:round;stroke-miterlimit:10;}
	.st2{fill:none;stroke:#000000;stroke-width:10;stroke-miterlimit:10;}
</style>
<circle class="st0" cx="206.7" cy="82.1" r="9.5"/>
<path class="st1" d="M207.3,104.9H76.5c-12.6,0-22.8-10.2-22.8-22.8v0c0-12.6,10.2-22.8,22.8-22.8h130.8c12.6,0,22.8,10.2,22.8,22.8
	v0C230,94.7,219.8,104.9,207.3,104.9z"/>
<circle class="st2" cx="77.1" cy="147.6" r="9.5"/>
<path class="st1" d="M207.3,170.4H76.5c-12.6,0-22.8-10.2-22.8-22.8v0c0-12.6,10.2-22.8,22.8-22.8h130.8c12.6,0,22.8,10.2,22.8,22.8
	v0C230,160.2,219.8,170.4,207.3,170.4z"/>
<circle class="st0" cx="207.1" cy="213.1" r="9.5"/>
<path class="st1" d="M207.3,235.9H76.5c-12.6,0-22.8-10.2-22.8-22.8v0c0-12.6,10.2-22.8,22.8-22.8h130.8c12.6,0,22.8,10.2,22.8,22.8
	v0C230,225.7,219.8,235.9,207.3,235.9z"/>
</svg>
